<svg width="16" height="17" viewBox="0 0 16 17" fill="none" xmlns="http://www.w3.org/2000/svg">
<path fill-rule="evenodd" clip-rule="evenodd" d="M8 16.5C12.4183 16.5 16 12.9183 16 8.5C16 4.08172 12.4183 0.5 8 0.5C3.58172 0.5 0 4.08172 0 8.5C0 12.9183 3.58172 16.5 8 16.5ZM7.16854 13H8.8427V6.81984H7.16854V13ZM8.69663 5.79765C8.89888 5.60966 9 5.35509 9 5.03394C9 4.71279 8.89888 4.46214 8.69663 4.28198C8.50187 4.09399 8.26966 4 8 4C7.73034 4 7.49438 4.09399 7.29213 4.28198C7.09738 4.46214 7 4.71279 7 5.03394C7 5.35509 7.09738 5.60966 7.29213 5.79765C7.49438 5.97781 7.73034 6.06788 8 6.06788C8.26966 6.06788 8.50187 5.97781 8.69663 5.79765Z" fill="white"/>
</svg>
