<svg width="22" height="23" viewBox="0 0 22 23" fill="none" xmlns="http://www.w3.org/2000/svg">
<path fill-rule="evenodd" clip-rule="evenodd" d="M2 9.51598C2 5.754 5.04969 2.70432 8.81167 2.70432C12.5736 2.70432 15.6233 5.754 15.6233 9.51598C15.6233 13.278 12.5736 16.3277 8.81167 16.3277C5.04969 16.3277 2 13.278 2 9.51598ZM8.81167 0.704315C3.94512 0.704315 0 4.64943 0 9.51598C0 14.3825 3.94512 18.3277 8.81167 18.3277C10.8846 18.3277 12.7904 17.6118 14.2953 16.4139L20.1771 22.2957L21.5913 20.8815L15.7095 14.9997C16.9075 13.4948 17.6233 11.589 17.6233 9.51598C17.6233 4.64943 13.6782 0.704315 8.81167 0.704315Z" fill="white"/>
</svg>
